<svg width="100%" height="100%" viewBox="0 0 47 27" fill="none" xmlns="http://www.w3.org/2000/svg">
<path d="M0 26.1012V0.503329H6.15284V10.4261H17.1242V0.503329H23.277V26.1012H17.1242V15.2437H6.15284V26.1012H0Z" fill="currentColor"/>
<path d="M34.6766 27C28.3014 27 24.2613 23.5486 24.2613 18.0839L25.818 18.0479C25.818 22.7217 29.228 25.5619 34.7137 25.5619C39.8658 25.5619 43.1646 23.225 43.1646 19.7017C43.1646 15.4594 38.7168 14.8842 34.1948 14.1651C29.5246 13.4461 24.7061 12.4394 24.7061 7.33422C24.7061 2.94807 28.2643 0 34.1577 0C40.2735 0 44.0912 3.16378 44.1283 8.26897L42.5716 8.30493C42.5345 4.06258 39.3098 1.43808 34.1948 1.43808C29.2651 1.43808 26.2999 3.88282 26.2999 7.29827C26.2999 11.3609 30.34 12.0799 34.6396 12.727C39.4951 13.482 44.7214 14.3089 44.7214 19.6298C44.7214 24.1598 40.8666 27 34.6766 27Z" fill="currentColor"/>
<path d="M45.6656 4.24234C44.8873 4.24234 44.3313 3.66711 44.3313 2.94807C44.3313 2.19308 44.8873 1.6538 45.6656 1.6538C46.407 1.6538 47 2.19308 47 2.94807C47 3.66711 46.407 4.24234 45.6656 4.24234Z" fill="currentColor"/>
</svg>